<?xml version="1.0" standalone="no"?>
<!DOCTYPE svg PUBLIC "-//W3C//DTD SVG 1.1//EN"
  "http://www.w3.org/Graphics/SVG/1.1/DTD/svg11.dtd">
<svg version="1.1" xmlns="http://www.w3.org/2000/svg" xmlns:xlink="http://www.w3.org/1999/xlink" width="800" height="400" viewBox="0 100 800 800" id="ccdiagram"><filter id="grayscale"><feColorMatrix type="matrix" values="0.3333 0.3333 0.3333 0 0 0.3333 0.3333 0.3333 0 0 0.3333 0.3333 0.3333 0 0 0 0 0 1 0"></feColorMatrix></filter><defs><style type="text/css">@import url('https://fonts.googleapis.com/css?family=Open+Sans:400,700|Inconsolata:400');</style></defs><g><g pointer-events="auto"></g><g pointer-events="auto"></g><g></g><g pointer-events="auto"></g><g></g><g pointer-events="auto"></g><g pointer-events="auto"></g><g pointer-events="none"></g><g pointer-events="auto"><g><g cursor="cell"><line x1="135" y1="630" x2="135" y2="540" stroke="red" stroke-width="8" opacity="0"></line><line x1="135" y1="630" x2="135" y2="540" stroke="#4286c5" stroke-width="2" stroke-dasharray="8,6" stroke-linecap="butt"></line></g></g><g><g cursor="cell"><line x1="180" y1="495" x2="360" y2="495" stroke="red" stroke-width="8" opacity="0"></line><line x1="180" y1="495" x2="360" y2="495" stroke="#9e9e9e" stroke-width="2" stroke-linecap="round"></line></g></g><g><g cursor="cell"><line x1="360" y1="675" x2="540" y2="675" stroke="red" stroke-width="8" opacity="0"></line><line x1="360" y1="675" x2="540" y2="675" stroke="#9e9e9e" stroke-width="2" stroke-linecap="round"></line></g></g><g><g cursor="cell"><line x1="360" y1="495" x2="360" y2="675" stroke="red" stroke-width="8" opacity="0"></line><line x1="360" y1="495" x2="360" y2="675" stroke="#9e9e9e" stroke-width="2" stroke-linecap="round"></line></g></g><g><g cursor="cell"><line x1="360" y1="315" x2="540" y2="315" stroke="red" stroke-width="8" opacity="0"></line><line x1="360" y1="315" x2="540" y2="315" stroke="#9e9e9e" stroke-width="2" stroke-linecap="round"></line></g></g><g><g cursor="cell"><line x1="90" y1="495" x2="-112" y2="495" stroke="red" stroke-width="8" opacity="0"></line><line x1="90" y1="495" x2="-112" y2="495" stroke="#9e9e9e" stroke-width="2" stroke-linecap="round"></line></g></g><g><g cursor="cell"><line x1="360" y1="495" x2="360" y2="315" stroke="red" stroke-width="8" opacity="0"></line><line x1="360" y1="495" x2="360" y2="315" stroke="#9e9e9e" stroke-width="2" stroke-linecap="round"></line></g></g><g><g cursor="cell"><line x1="360" y1="495" x2="540" y2="495" stroke="red" stroke-width="8" opacity="0"></line><line x1="360" y1="495" x2="540" y2="495" stroke="#9e9e9e" stroke-width="2" stroke-linecap="round"></line></g></g><g><g cursor="cell"><line x1="135" y1="450" x2="135" y2="315" stroke="red" stroke-width="8" opacity="0"></line><line x1="135" y1="450" x2="135" y2="315" stroke="#9e9e9e" stroke-width="2" stroke-dasharray="8,6" stroke-linecap="butt"></line></g></g></g><g pointer-events="auto"><g opacity="1"><g id="ea2c07cc-a4b2-4729-8a5c-69a75d515e28" transform="translate(0 0)"><svg x="540" y="270" height="90" id="svg15" width="90" version="1.1"><defs id="defs4"></defs><g id="Reference" fill-opacity="1" transform="scale(1.2)"><path id="Orange_Light_BG" d="M0 0h75v75H0z" fill="#d86613" data-name="Orange Light BG"></path><g id="Product_Icon" fill="#ffffff" data-name="Product Icon"><path class="cls-2" id="path9" d="M60.5 62.5H48.18a1 1 0 0 1-.9-.57L29.86 25.5h-7.37a1 1 0 0 1-1-1v-11a1 1 0 0 1 1-1h15.4a1 1 0 0 1 .9.57L56.13 49.5h4.37a1 1 0 0 1 1 1v11a1 1 0 0 1-1 1zm-11.69-2H59.5v-9h-4a1 1 0 0 1-.9-.57L37.26 14.5H23.5v9h7a1 1 0 0 1 .9.57z" fill="#ffffff" fill-opacity="1"></path><path class="cls-2" id="path11" d="M27.48 62.5h-13a1 1 0 0 1-.85-.47 1 1 0 0 1-.05-1l13.6-28.41a1 1 0 0 1 .9-.57 1 1 0 0 1 .9.56L35.49 46a1 1 0 0 1 0 .87l-7.1 15a1 1 0 0 1-.91.63zm-11.4-2h10.77l6.63-14-5.39-11.15z" fill="#ffffff" fill-opacity="1"></path></g></g></svg></g></g><g opacity="1"><g id="985cd94c-4bdf-43c9-9f89-48d40aff8139" transform="translate(0 0)"><svg x="90" y="450" height="90" id="svg25" width="90" version="1.1"><defs id="defs4"></defs><g id="Reference" fill-opacity="1" transform="scale(1.2)"><path id="Purple_Light_BG" d="M0 0h75v75H0z" fill="#693cc5" data-name="Purple Light BG"></path><g id="Product_Icon" fill="#ffffff" data-name="Product Icon"><path class="cls-2" id="path9" d="M48.51 61.5a1 1 0 0 1-.59-.19 1 1 0 0 1-.42-.81v-46a1 1 0 0 1 .48-.85 1 1 0 0 1 1-.05l13 6.35a1 1 0 0 1 .56.89v35.34a1 1 0 0 1-.69 1l-13 4.32a1.19 1.19 0 0 1-.34 0zm1-45.39v43l11-3.65v-34z" fill="#ffffff" fill-opacity="1"></path><path class="cls-2" id="path11" d="M26.5 61.5a1.19 1.19 0 0 1-.32 0l-13-4.32a1 1 0 0 1-.68-1V20.84a1 1 0 0 1 .56-.89l13-6.35a1 1 0 0 1 1 .05 1 1 0 0 1 .47.85v46a1 1 0 0 1-.42.81.94.94 0 0 1-.61.19zm-12-6l11 3.65v-43l-11 5.37z" fill="#ffffff" fill-opacity="1"></path><path class="cls-2" id="path13" d="M47.5 27.5h-3v-2h3zm-6 0h-3v-2h3zm-6 0h-3v-2h3zm-6 0h-3v-2h3z" fill="#ffffff" fill-opacity="1"></path><path class="cls-2" id="path15" d="M47.5 49.5h-3v-2h3zm-6 0h-3v-2h3zm-6 0h-3v-2h3zm-6 0h-3v-2h3z" fill="#ffffff" fill-opacity="1"></path><path class="cls-2" id="path17" d="M33.11 40.94l-3.76-3.21a1 1 0 0 1 0-1.52L33.1 33l1.3 1.52L31.54 37l2.86 2.45z" fill="#ffffff" fill-opacity="1"></path><path class="cls-2" id="path19" d="M41.9 40.94l-1.3-1.52L43.46 37l-2.87-2.44 1.3-1.56 3.76 3.2a1 1 0 0 1 0 1.52z" fill="#ffffff" fill-opacity="1"></path><path class="cls-2" id="rect21" d="M31.29 36.5H43.7v2H31.29z" fill="#ffffff" fill-opacity="1" transform="rotate(-71.32 37.488 37.496)"></path></g></g></svg></g></g><g opacity="1"><g id="139b81c2-5fac-40de-941a-69e95e5841dd" transform="translate(0 0)"><svg x="540" y="450" height="90" id="svg15" width="90" version="1.1"><defs id="defs4"></defs><g id="Reference" fill-opacity="1" transform="scale(1.2)"><path id="Orange_Light_BG" d="M0 0h75v75H0z" fill="#d86613" data-name="Orange Light BG"></path><g id="Product_Icon" fill="#ffffff" data-name="Product Icon"><path class="cls-2" id="path9" d="M60.5 62.5H48.18a1 1 0 0 1-.9-.57L29.86 25.5h-7.37a1 1 0 0 1-1-1v-11a1 1 0 0 1 1-1h15.4a1 1 0 0 1 .9.57L56.13 49.5h4.37a1 1 0 0 1 1 1v11a1 1 0 0 1-1 1zm-11.69-2H59.5v-9h-4a1 1 0 0 1-.9-.57L37.26 14.5H23.5v9h7a1 1 0 0 1 .9.57z" fill="#ffffff" fill-opacity="1"></path><path class="cls-2" id="path11" d="M27.48 62.5h-13a1 1 0 0 1-.85-.47 1 1 0 0 1-.05-1l13.6-28.41a1 1 0 0 1 .9-.57 1 1 0 0 1 .9.56L35.49 46a1 1 0 0 1 0 .87l-7.1 15a1 1 0 0 1-.91.63zm-11.4-2h10.77l6.63-14-5.39-11.15z" fill="#ffffff" fill-opacity="1"></path></g></g></svg></g></g><g opacity="1"><g id="ae850569-a239-485c-b436-dbaeb714e2ff" transform="translate(0 0)"><svg x="90" y="630" height="90" id="svg19" width="90" version="1.1"><defs id="defs4"></defs><g id="Reference" fill-opacity="1" transform="scale(1.2)"><path id="Purple_Light_BG" d="M0 0h75v75H0z" fill="#693cc5" data-name="Purple Light BG"></path><g id="Product_Icon" fill="#ffffff" data-name="Product Icon"><path class="cls-2" id="path9" d="M27.29 42.94a13 13 0 0 0 3.92.74 3.59 3.59 0 0 0 2.41-.68 2.56 2.56 0 0 0 .83-2 2.62 2.62 0 0 0-.78-2.12 4 4 0 0 0-2.56-.66 30.05 30.05 0 0 0-3.2.2V37l.39-6.17h7.53v1.67H30l-.27 4.19a11.13 11.13 0 0 1 2-.2 4.93 4.93 0 0 1 3.49 1.17 4.23 4.23 0 0 1 1.25 3.24 4.07 4.07 0 0 1-1.46 3.27 5.76 5.76 0 0 1-3.86 1.25 9.53 9.53 0 0 1-3.94-.83z" fill="#ffffff" fill-opacity="1"></path><path class="cls-2" id="path11" d="M43.63 36.94H44A4.62 4.62 0 0 1 47.28 38a3.83 3.83 0 0 1 1.2 3A4 4 0 0 1 47 44.21a6 6 0 0 1-3.91 1.21 9.51 9.51 0 0 1-3.83-.83v-1.65a12.4 12.4 0 0 0 3.83.74 3.69 3.69 0 0 0 2.42-.7 2.44 2.44 0 0 0 .84-2q0-2.49-3.15-2.49a18.11 18.11 0 0 0-2 .1v-1.36l4.33-4.73h-6.05v-1.69h8.4v1.63z" fill="#ffffff" fill-opacity="1"></path><path class="cls-2" id="path13" d="M37.5 56.5a1 1 0 0 1-.5-.14 33.17 33.17 0 0 0-10.48-4c-2.11-.38-9-2-9-7 0-2.26.87-3.76 2-5.66a15.66 15.66 0 0 0 2.71-8.21 14.58 14.58 0 0 0-2.38-7.93 1 1 0 0 1 .07-1.17l1.6-2a1 1 0 0 1 1.27-.24A13.69 13.69 0 0 0 29.54 22a12.33 12.33 0 0 0 7.38-2.32 1 1 0 0 1 1.16 0A12.33 12.33 0 0 0 45.46 22a13.69 13.69 0 0 0 6.77-1.86 1 1 0 0 1 1.27.24l1.6 2a1 1 0 0 1 .07 1.17 14.56 14.56 0 0 0-2.38 7.93c0 3.55 1.44 6 2.7 8.21 1.11 1.9 2 3.4 2 5.66 0 5-6.88 6.65-9 7a33.17 33.17 0 0 0-10.48 4 1 1 0 0 1-.51.15zM21.9 23a16.44 16.44 0 0 1 2.31 8.38c0 4.09-1.65 6.93-3 9.21-1 1.77-1.7 2.94-1.7 4.66 0 3.56 6.11 4.84 7.34 5.06a34.88 34.88 0 0 1 10.63 4 34.88 34.88 0 0 1 10.63-4c1.23-.22 7.34-1.5 7.34-5.06 0-1.72-.68-2.89-1.7-4.66-1.33-2.28-3-5.12-3-9.21A16.44 16.44 0 0 1 53.1 23l-.63-.78a15.44 15.44 0 0 1-7 1.72 14.43 14.43 0 0 1-8-2.3 14.43 14.43 0 0 1-8 2.3 15.44 15.44 0 0 1-7-1.72z" fill="#ffffff" fill-opacity="1"></path><path class="cls-2" id="path15" d="M37.5 62.5a1 1 0 0 1-.63-.22 30 30 0 0 0-11.25-5c-8.22-1.48-13.13-6-13.13-12a15.29 15.29 0 0 1 2.65-8.19c1.09-1.87 2-3.49 2-5.68a10.77 10.77 0 0 0-3.64-7.63 1 1 0 0 1-.14-1.48c0-.07 5.87-7.11 7.2-8.94a1 1 0 0 1 .78-.42 1 1 0 0 1 .82.32 10.34 10.34 0 0 0 7.35 3.66c2.79 0 5-1.24 7.13-4a1.08 1.08 0 0 1 1.66 0c2.14 2.8 4.34 4 7.13 4a10.34 10.34 0 0 0 7.35-3.66 1 1 0 0 1 .82-.32 1 1 0 0 1 .78.42c1.33 1.83 7.15 8.87 7.2 8.94a1 1 0 0 1 .24.77 1.09 1.09 0 0 1-.38.71 10.77 10.77 0 0 0-3.64 7.63c0 2.19.94 3.81 2 5.68a15.29 15.29 0 0 1 2.65 8.19c0 6-4.91 10.52-13.13 12a29.71 29.71 0 0 0-11.24 5 1 1 0 0 1-.58.22zM15.61 22.89a12.51 12.51 0 0 1 3.64 8.53c0 2.75-1.17 4.77-2.3 6.72-1.22 2.11-2.38 4.09-2.38 7.15 0 7.32 8.74 9.46 11.42 9.94a31.34 31.34 0 0 1 11.51 4.94A31.34 31.34 0 0 1 49 55.23c2.68-.48 11.42-2.62 11.42-9.94 0-3.06-1.16-5-2.38-7.15-1.13-2-2.3-4-2.3-6.72a12.51 12.51 0 0 1 3.64-8.53c-1.31-1.59-4.34-5.28-5.93-7.33a11.92 11.92 0 0 1-8 3.46 10.16 10.16 0 0 1-8-3.86 10.16 10.16 0 0 1-8 3.86 11.92 11.92 0 0 1-8-3.46c-1.45 2.05-4.53 5.74-5.84 7.33z" fill="#ffffff" fill-opacity="1"></path></g></g></svg></g></g><g opacity="1"><g id="667087a1-f258-4ba0-ada7-381b8eefe9ea" transform="translate(0 0)"><svg x="540" y="630" height="90" id="svg15" width="90" version="1.1"><defs id="defs4"></defs><g id="Reference" fill-opacity="1" transform="scale(1.2)"><path id="Orange_Light_BG" d="M0 0h75v75H0z" fill="#d86613" data-name="Orange Light BG"></path><g id="Product_Icon" fill="#ffffff" data-name="Product Icon"><path class="cls-2" id="path9" d="M60.5 62.5H48.18a1 1 0 0 1-.9-.57L29.86 25.5h-7.37a1 1 0 0 1-1-1v-11a1 1 0 0 1 1-1h15.4a1 1 0 0 1 .9.57L56.13 49.5h4.37a1 1 0 0 1 1 1v11a1 1 0 0 1-1 1zm-11.69-2H59.5v-9h-4a1 1 0 0 1-.9-.57L37.26 14.5H23.5v9h7a1 1 0 0 1 .9.57z" fill="#ffffff" fill-opacity="1"></path><path class="cls-2" id="path11" d="M27.48 62.5h-13a1 1 0 0 1-.85-.47 1 1 0 0 1-.05-1l13.6-28.41a1 1 0 0 1 .9-.57 1 1 0 0 1 .9.56L35.49 46a1 1 0 0 1 0 .87l-7.1 15a1 1 0 0 1-.91.63zm-11.4-2h10.77l6.63-14-5.39-11.15z" fill="#ffffff" fill-opacity="1"></path></g></g></svg></g></g></g><g pointer-events="auto"></g><g pointer-events="auto"><g opacity="1"><g id="a1807f68-4e6d-4616-9b67-662bd428defd" transform="translate(0 0)"><svg x="135" y="315" overflow="visible"><g transform="scale(1.2074767078498865) "><circle cx="0" cy="0" fill="#ffffff" r="37.5"></circle><svg width="75" height="75" x="-37.5" y="-37.5"><svg xmlns="http://www.w3.org/2000/svg" viewBox="0 0 75 75"><defs><linearGradient id="RedGradient" x1="1002.53" y1="-41.53" x2="896.46" y2="64.54" gradientTransform="rotate(180 493.5 24.5)" gradientUnits="userSpaceOnUse"><stop offset="0" stop-color="#bd0816"></stop><stop offset="1" stop-color="#ff5252"></stop></linearGradient></defs><g id="Reference"><path id="Red_Gradient" data-name="Red Gradient" fill="url(#RedGradient)" d="M0 0h75v75H0z"></path><g id="Icon_Test" data-name="Icon Test" fill="#fff"><path d="M55 15H16.46a3.92 3.92 0 00-3.71 4.1v24.8a3.92 3.92 0 003.71 4.1h21.29v-2H16.46a2 2 0 01-1.71-2.1V27h18v15a1 1 0 001 1h8v-2H35.2v-.3a7.74 7.74 0 015.53-7.43 5.91 5.91 0 004.92 0 7.82 7.82 0 014.42 3.42l1.7-1a9.8 9.8 0 00-4.34-3.82 5.4 5.4 0 001.27-3.48 5.5 5.5 0 00-11 0A5.42 5.42 0 0039 31.8a9.67 9.67 0 00-4.22 3.62V22h17v14h2v-9h3v10h2V19.1A3.92 3.92 0 0055 15zm-11.8 9.87a3.48 3.48 0 013.5 3.46 3.43 3.43 0 01-1.81 3 3.57 3.57 0 01-3.39 0 3.44 3.44 0 01-1.8-3 3.48 3.48 0 013.5-3.46zm10.55.13v-4a1 1 0 00-1-1h-19a1 1 0 00-1 1v4h-18v-5.9a2 2 0 011.71-2.1H55a2 2 0 011.73 2.1V25z"></path><path d="M16.77 31.95h10.98v2H16.77zM16.77 36.95h6.98v2h-6.98zM25.77 36.95h2.98v2h-2.98zM51.78 35.65zM52.14 60.05a10.11 10.11 0 111.22-20.14 10.12 10.12 0 016.46 16.61 10.47 10.47 0 01-3.37 2.57 10.19 10.19 0 01-4.31.96zm0-18.22a8 8 0 00-3.69.9 8.11 8.11 0 007.16 14.55 8.2 8.2 0 002.71-2.07 8.11 8.11 0 00-5.19-13.32 8.22 8.22 0 00-1.01-.06z"></path><path d="M50.55 54.2a1 1 0 01-.71-.29l-3.23-3.23L48 49.27l2.52 2.52 5.7-5.71 1.42 1.42-6.42 6.41a1 1 0 01-.67.29zM51.78 35.65z"></path></g></g></svg></svg></g></svg></g></g></g><g pointer-events="auto"><g opacity="1"><g id="7da880de-0e50-49fb-b16c-4749d0b374f2" transform="translate(0 0)"><svg x="-67" y="450" overflow="visible"><text stroke="#ffffff" stroke-width="0" font-family="Open Sans" y="26.24" font-size="16pt" fill="#000000" font-weight="bold" transform="" xml:space="preserve"><tspan x="8" dy="0">HTTPS</tspan></text><text font-family="Open Sans" y="26.24" font-size="16pt" fill="#000000" font-weight="bold" transform="" xml:space="preserve"><tspan x="8" dy="0">HTTPS</tspan></text></svg></g></g><g opacity="1"><g id="06e69da2-d434-4e18-9900-5ec8cacc5fbc" transform="translate(0 0)"><svg x="360" y="270" overflow="visible"><text stroke="#ffffff" stroke-width="0" font-family="Open Sans" y="26.24" font-size="16pt" fill="#000000" font-weight="bold" transform="" xml:space="preserve"><tspan x="8" dy="0">ANY /a/{any+}</tspan></text><text font-family="Open Sans" y="26.24" font-size="16pt" fill="#000000" font-weight="bold" transform="" xml:space="preserve"><tspan x="8" dy="0">ANY /a/{any+}</tspan></text></svg></g></g><g opacity="1"><g id="5fd09932-2168-4d85-9403-b9707d7004a9" transform="translate(0 0)"><svg x="360" y="450" overflow="visible"><text stroke="#ffffff" stroke-width="0" font-family="Open Sans" y="26.24" font-size="16pt" fill="#000000" font-weight="bold" transform="" xml:space="preserve"><tspan x="8" dy="0">ANY /b/{any+}</tspan></text><text font-family="Open Sans" y="26.24" font-size="16pt" fill="#000000" font-weight="bold" transform="" xml:space="preserve"><tspan x="8" dy="0">ANY /b/{any+}</tspan></text></svg></g></g><g opacity="1"><g id="8dfc97f3-0882-4128-ba5a-94f49152f563" transform="translate(0 0)"><svg x="360" y="630" overflow="visible"><text stroke="#ffffff" stroke-width="0" font-family="Open Sans" y="26.24" font-size="16pt" fill="#000000" font-weight="bold" transform="" xml:space="preserve"><tspan x="8" dy="0">ANY /c/{any+}</tspan></text><text font-family="Open Sans" y="26.24" font-size="16pt" fill="#000000" font-weight="bold" transform="" xml:space="preserve"><tspan x="8" dy="0">ANY /c/{any+}</tspan></text></svg></g></g></g><g></g><g></g></g></svg>