<?xml version="1.0" encoding="UTF-8" standalone="no"?>
<!-- Created with Inkscape (http://www.inkscape.org/) -->

<svg
   width="86.57415mm"
   height="73.706825mm"
   viewBox="0 0 86.57415 73.706825"
   version="1.1"
   id="svg1"
   xml:space="preserve"
   inkscape:version="1.4.3 (0d15f75, 2025-12-25)"
   sodipodi:docname="scud-logo-v2.svg"
   xmlns:inkscape="http://www.inkscape.org/namespaces/inkscape"
   xmlns:sodipodi="http://sodipodi.sourceforge.net/DTD/sodipodi-0.dtd"
   xmlns="http://www.w3.org/2000/svg"
   xmlns:svg="http://www.w3.org/2000/svg"><sodipodi:namedview
     id="namedview1"
     pagecolor="#ffffff"
     bordercolor="#000000"
     borderopacity="0.25"
     inkscape:showpageshadow="2"
     inkscape:pageopacity="0.0"
     inkscape:pagecheckerboard="0"
     inkscape:deskcolor="#d1d1d1"
     inkscape:document-units="mm"
     inkscape:zoom="5.6248215"
     inkscape:cx="168.00533"
     inkscape:cy="150.84923"
     inkscape:window-width="1216"
     inkscape:window-height="708"
     inkscape:window-x="0"
     inkscape:window-y="34"
     inkscape:window-maximized="0"
     inkscape:current-layer="layer1" /><defs
     id="defs1" /><g
     inkscape:label="Layer 1"
     inkscape:groupmode="layer"
     id="layer1"
     transform="translate(-93.243009,-163.80028)"><path
       style="fill:#d40000"
       d="m 142.0947,214.33578 c -0.097,-0.097 -0.17638,-1.11688 -0.17638,-2.26636 0,-2.61346 -0.24146,-3.1135 -1.50342,-3.1135 -0.69538,0 -1.25126,-0.24367 -2.04121,-0.89476 -2.26798,-1.86932 -2.54079,-2.21168 -2.54079,-3.18861 0,-1.17086 -0.53139,-1.34464 -3.31426,-1.08387 -2.49231,0.23355 -2.51345,0.0979 -0.45605,-2.92689 1.75265,-2.57673 2.83152,-3.28296 5.01516,-3.28296 1.5573,0 1.78852,-0.1662 3.75317,-2.69779 2.7706,-3.57013 5.62404,-5.45282 9.93462,-6.55483 2.94635,-0.75324 3.79651,-0.72096 4.01573,0.15248 0.2895,1.15344 -0.13245,4.68445 -0.79124,6.62136 -1.09418,3.21704 -1.94897,4.68456 -4.25819,7.31062 l -2.25727,2.567 v 2.01528 c 0,2.60332 -0.36582,3.34128 -2.80475,5.65803 -1.93505,1.8381 -2.2293,2.03062 -2.57512,1.6848 z m 7.2523,-16.73659 c 0.57259,-0.57259 0.7734,-1.02442 0.7734,-1.74015 0,-1.34429 -1.16925,-2.51354 -2.51354,-2.51354 -1.34429,0 -2.51354,1.16925 -2.51354,2.51354 0,0.71573 0.20081,1.16756 0.77339,1.74015 0.57259,0.57258 1.02442,0.77339 1.74015,0.77339 0.71573,0 1.16756,-0.20081 1.74014,-0.77339 z"
       id="path26"
       sodipodi:nodetypes="ssssssssssssscssssssssss" /><path
       style="fill:#6900d4;fill-opacity:1;stroke:#6900d4;stroke-width:0.5;stroke-dasharray:none;stroke-opacity:1"
       d="m 131.41239,236.85629 c -4.87888,-0.75811 -9.67084,-2.64908 -14.0309,-5.53677 -2.02559,-1.34156 -3.52285,-2.65299 -3.28629,-2.87843 0.0612,-0.0583 1.12332,-0.31488 2.36025,-0.57011 l 2.24895,-0.46406 1.57416,1.00785 c 2.55382,1.63508 5.67782,2.97349 9.03681,3.8716 2.95265,0.78948 3.41745,0.84059 7.51298,0.82622 3.96587,-0.0139 4.64799,-0.0882 7.44926,-0.81167 5.56957,-1.43835 9.89348,-3.90681 14.24658,-8.13317 l 2.51354,-2.44037 2.28331,-0.003 c 3.9911,-0.005 6.56263,-1.07485 9.05673,-3.76878 2.66827,-2.88205 3.70743,-6.17211 3.11076,-9.84885 -0.54713,-3.37136 -2.29363,-6.07821 -5.12385,-7.94131 -1.92513,-1.26729 -3.75297,-1.80551 -6.33319,-1.86484 l -2.20001,-0.0506 -0.15852,-2.78914 c -0.48811,-8.58827 -6.11543,-15.77366 -14.64958,-18.7057 -3.27646,-1.12568 -9.65881,-1.02112 -12.70857,0.0301 -2.61039,0.89977 -3.88392,1.62301 -6.68625,3.79711 -2.26925,1.76052 -3.63101,3.35715 -5.08315,5.95987 -0.46685,0.83674 -0.9486,1.52135 -1.07056,1.52135 -0.12196,0 -0.82151,-0.37283 -1.55457,-0.82853 -1.05318,-0.65469 -1.71516,-0.85588 -3.15514,-0.95891 -2.2989,-0.16449 -3.49695,0.22104 -5.0041,1.61028 -1.47534,1.35992 -1.91248,2.21326 -2.29413,4.47832 l -0.30568,1.81416 -2.1582,0.72413 c -3.87902,1.3015 -6.28954,3.50788 -8.304808,7.60147 -0.706747,1.4356 -0.857708,2.08793 -0.967079,4.17891 -0.24782,4.73784 1.129899,8.30334 4.350667,11.25943 3.81331,3.49993 8.33357,4.49951 13.9289,3.08014 5.14263,-1.30453 11.09321,-5.25435 15.77325,-10.46981 1.24051,-1.38245 2.38485,-2.54783 2.54296,-2.58972 0.39444,-0.10453 2.76602,2.01719 2.76602,2.4746 0,0.20299 -1.56804,1.98412 -3.48453,3.95808 -5.33939,5.4995 -9.66668,8.40876 -15.16859,10.19793 -2.31364,0.75237 -3.09429,0.87501 -6.21771,0.97674 -4.09479,0.13336 -5.8308,-0.19474 -8.70834,-1.64586 -3.986946,-2.01058 -6.60095,-4.67149 -8.416654,-8.56767 -1.29301,-2.77457 -1.746044,-5.17225 -1.567011,-8.29337 0.265444,-4.62755 1.947106,-8.50123 5.015804,-11.55381 2.146221,-2.13495 3.289451,-2.96906 5.383161,-3.92759 0.97053,-0.44432 1.54586,-0.89566 1.73856,-1.36389 1.59339,-3.8715 2.89844,-5.51161 5.48082,-6.88801 2.23169,-1.18948 4.12096,-1.48808 6.86237,-1.0846 l 2.21684,0.32626 0.66774,-0.89236 c 1.38879,-1.85594 4.79819,-4.90819 6.84891,-6.13146 4.26477,-2.54394 6.91821,-3.32884 11.99446,-3.54802 4.12087,-0.17792 6.0102,0.11244 9.64572,1.48243 3.96297,1.49339 6.17934,2.95278 9.16142,6.03245 3.7299,3.85196 5.11941,6.34331 6.45502,11.57367 l 0.80633,3.15767 1.71628,0.42937 c 3.30272,0.82626 6.96177,3.13705 8.72038,5.50717 3.79564,5.11546 4.36846,11.28616 1.58896,17.11686 -2.17949,4.57202 -7.41985,7.96466 -13.0788,8.4673 l -2.10448,0.18692 -1.99656,1.85834 c -7.82686,7.285 -18.77213,10.67012 -29.24065,9.04346 z m 3.03471,-9.75305 c -2.1274,-0.45651 -3.40883,-0.91376 -5.45376,-1.94603 -2.48852,-1.2562 -2.52607,-1.41108 -0.6509,-2.68449 l 1.59922,-1.08601 1.01484,0.51774 c 3.64572,1.85991 8.07779,2.22183 11.82498,0.96562 2.73251,-0.91605 3.99018,-1.66483 6.08028,-3.62001 1.87605,-1.75496 3.52628,-4.16598 4.2542,-6.21549 0.61553,-1.73306 0.43459,-2.13648 -1.05865,-2.3604 -0.66332,-0.0995 -1.20604,-0.26205 -1.20604,-0.36129 0,-0.0992 0.98537,-1.42517 2.18972,-2.94652 1.20435,-1.52135 2.46261,-3.15304 2.79614,-3.62598 0.33353,-0.47295 0.69936,-0.8599 0.81295,-0.8599 0.21565,0 3.46917,8.1098 3.46436,8.63536 -0.002,0.19051 -0.50488,0.28763 -1.37075,0.26458 l -1.36801,-0.0364 -0.44286,1.45521 c -1.04928,3.44783 -2.33251,5.55904 -5.00372,8.23229 -2.19528,2.19694 -2.88391,2.70873 -5.05097,3.75386 -1.38004,0.66557 -3.22353,1.40105 -4.09665,1.6344 -2.23912,0.59844 -6.23347,0.73429 -8.33438,0.28346 z m -14.71061,-12.21818 c -1.1636,-2.63113 -1.4999,-4.65827 -1.35506,-8.16812 0.2242,-5.43315 1.95644,-9.28562 6.02143,-13.39154 1.83855,-1.85706 2.67816,-2.48456 4.5122,-3.37228 3.33673,-1.61508 5.8641,-2.20417 9.3685,-2.18365 3.02919,0.0177 4.67607,0.25776 4.78914,0.69802 0.0364,0.14178 -0.63464,0.82333 -1.49123,1.51455 -1.54076,1.24332 -1.57819,1.25677 -3.49656,1.25677 -4.17712,0 -7.90229,1.62656 -11.20455,4.89234 -2.45411,2.42699 -3.48429,4.26452 -4.37249,7.79917 -0.84826,3.37568 -0.53658,6.72875 0.93983,10.11073 0.14643,0.33544 -0.12032,0.67567 -1.08391,1.3825 -0.70297,0.51566 -1.43352,0.94051 -1.62343,0.94412 -0.1899,0.004 -0.64165,-0.66357 -1.00387,-1.48261 z m 51.4877,-21.81184 c -0.94589,-0.41703 -1.81296,-0.79331 -1.92682,-0.83617 -0.11387,-0.0429 -0.389,-0.77476 -0.61141,-1.62645 -1.30068,-4.98084 -5.36761,-11.25724 -9.55514,-14.74621 -4.22887,-3.52342 -6.41735,-4.74766 -11.51545,-6.44178 -7.45534,-2.47744 -15.75302,-1.82082 -23.39381,1.8512 -2.37049,1.13922 -5.58148,3.50793 -8.38366,6.18453 -1.82525,1.74346 -2.43195,2.15313 -3.90909,2.63957 -0.96169,0.31669 -2.30528,0.92889 -2.98576,1.36044 -0.68047,0.43154 -1.29569,0.78463 -1.36713,0.78463 -0.0714,0 0.069,-0.38695 0.31201,-0.8599 1.8165,-3.53463 6.38138,-8.40998 10.37464,-11.08022 3.59421,-2.4034 5.58878,-3.38728 9.30538,-4.59015 4.54021,-1.46944 8.61988,-1.92455 13.66488,-1.52438 6.21401,0.49289 11.38409,2.28191 16.65728,5.76397 7.8764,5.20106 13.58593,13.70853 15.57315,23.20474 0.18985,0.90725 -0.008,0.89985 -2.23907,-0.0838 z"
       id="path18"
       sodipodi:nodetypes="cssscssscsccsssscsssssssssscsssssssssssssssscsscsssssscsssscsccssscssssssssscscssssssssssssssssscssssssssssscsssssss" /></g></svg>
