<?xml version="1.0" encoding="UTF-8" standalone="no"?>
<!-- Created with Inkscape (http://www.inkscape.org/) -->

<svg
   width="86.57415mm"
   height="73.706825mm"
   viewBox="0 0 86.57415 73.706825"
   version="1.1"
   id="svg1"
   xml:space="preserve"
   inkscape:version="1.4.2 (ebf0e940, 2025-05-08)"
   sodipodi:docname="scud-logo-v2.svg"
   xmlns:inkscape="http://www.inkscape.org/namespaces/inkscape"
   xmlns:sodipodi="http://sodipodi.sourceforge.net/DTD/sodipodi-0.dtd"
   xmlns="http://www.w3.org/2000/svg"
   xmlns:svg="http://www.w3.org/2000/svg"><sodipodi:namedview
     id="namedview1"
     pagecolor="#ffffff"
     bordercolor="#000000"
     borderopacity="0.25"
     inkscape:showpageshadow="2"
     inkscape:pageopacity="0.0"
     inkscape:pagecheckerboard="0"
     inkscape:deskcolor="#d1d1d1"
     inkscape:document-units="mm"
     inkscape:zoom="1.399126"
     inkscape:cx="195.12181"
     inkscape:cy="124.72072"
     inkscape:window-width="1216"
     inkscape:window-height="708"
     inkscape:window-x="0"
     inkscape:window-y="38"
     inkscape:window-maximized="0"
     inkscape:current-layer="layer1" /><defs
     id="defs1" /><g
     inkscape:label="Layer 1"
     inkscape:groupmode="layer"
     id="layer1"
     transform="translate(-93.243009,-163.80028)"><path
       style="fill:#d40000"
       d="m 142.0947,214.33578 c -0.097,-0.097 -0.17638,-1.11688 -0.17638,-2.26636 0,-2.61346 -0.24146,-3.1135 -1.50342,-3.1135 -0.69538,0 -1.25126,-0.24367 -2.04121,-0.89476 -2.26798,-1.86932 -2.54079,-2.21168 -2.54079,-3.18861 0,-1.17086 -0.53139,-1.34464 -3.31426,-1.08387 -2.49231,0.23355 -2.51345,0.0979 -0.45605,-2.92689 1.75265,-2.57673 2.83152,-3.28296 5.01516,-3.28296 1.5573,0 1.78852,-0.1662 3.75317,-2.69779 2.7706,-3.57013 5.62404,-5.45282 9.93462,-6.55483 2.94635,-0.75324 3.79651,-0.72096 4.01573,0.15248 0.2895,1.15344 -0.13245,4.68445 -0.79124,6.62136 -1.09418,3.21704 -1.94897,4.68456 -4.25819,7.31062 l -2.25727,2.567 v 2.01528 c 0,2.60332 -0.36582,3.34128 -2.80475,5.65803 -1.93505,1.8381 -2.2293,2.03062 -2.57512,1.6848 z m 7.2523,-16.73659 c 0.57259,-0.57259 0.7734,-1.02442 0.7734,-1.74015 0,-1.34429 -1.16925,-2.51354 -2.51354,-2.51354 -1.34429,0 -2.51354,1.16925 -2.51354,2.51354 0,0.71573 0.20081,1.16756 0.77339,1.74015 0.57259,0.57258 1.02442,0.77339 1.74015,0.77339 0.71573,0 1.16756,-0.20081 1.74014,-0.77339 z"
       id="path26"
       sodipodi:nodetypes="ssssssssssssscssssssssss" /><path
       style="fill:#6900d4;fill-opacity:1;stroke:#6900d4;stroke-width:0.5;stroke-dasharray:none;stroke-opacity:1"
       d="m 131.41239,236.85629 c -4.87888,-0.75811 -9.67084,-2.64908 -14.0309,-5.53677 -2.02559,-1.34156 -3.52285,-2.65299 -3.28629,-2.87843 0.0612,-0.0583 1.12332,-0.31488 2.36025,-0.57011 l 2.24895,-0.46406 1.57416,1.00785 c 2.55382,1.63508 5.67782,2.97349 9.03681,3.8716 2.95265,0.78948 3.41745,0.84059 7.51298,0.82622 3.96587,-0.0139 4.64799,-0.0882 7.44926,-0.81167 5.56957,-1.43835 9.89348,-3.90681 14.24658,-8.13317 l 2.51354,-2.44037 2.28331,-0.003 c 3.9911,-0.005 6.56263,-1.07485 9.05673,-3.76878 2.66827,-2.88205 3.70743,-6.17211 3.11076,-9.84885 -0.54713,-3.37136 -2.29363,-6.07821 -5.12385,-7.94131 -1.92513,-1.26729 -3.75297,-1.80551 -6.33319,-1.86484 l -2.20001,-0.0506 -0.15852,-2.78914 c -0.48811,-8.58827 -6.11543,-15.77366 -14.64958,-18.7057 -3.27646,-1.12568 -9.65881,-1.02112 -12.70857,0.0301 -2.61039,0.89977 -3.88392,1.62301 -6.68625,3.79711 -2.26925,1.76052 -3.63101,3.35715 -5.08315,5.95987 -0.46685,0.83674 -0.9486,1.52135 -1.07056,1.52135 -0.12196,0 -0.82151,-0.37283 -1.55457,-0.82853 -1.05318,-0.65469 -1.71516,-0.85588 -3.15514,-0.95891 -2.2989,-0.16449 -3.49695,0.22104 -5.0041,1.61028 -1.47534,1.35992 -1.91248,2.21326 -2.29413,4.47832 l -0.30568,1.81416 -2.1582,0.72413 c -3.87902,1.3015 -6.28954,3.50788 -8.304808,7.60147 -0.706747,1.4356 -0.857708,2.08793 -0.967079,4.17891 -0.24782,4.73784 1.129899,8.30334 4.350667,11.25943 3.81331,3.49993 8.33357,4.49951 13.9289,3.08014 5.14263,-1.30453 11.09321,-5.25435 15.77325,-10.46981 1.24051,-1.38245 2.38485,-2.54783 2.54296,-2.58972 0.39444,-0.10453 2.76602,2.01719 2.76602,2.4746 0,0.20299 -1.56804,1.98412 -3.48453,3.95808 -5.33939,5.4995 -9.66668,8.40876 -15.16859,10.19793 -2.31364,0.75237 -3.09429,0.87501 -6.21771,0.97674 -4.09479,0.13336 -5.8308,-0.19474 -8.70834,-1.64586 -3.986946,-2.01058 -6.60095,-4.67149 -8.416654,-8.56767 -1.29301,-2.77457 -1.746044,-5.17225 -1.567011,-8.29337 0.265444,-4.62755 1.947106,-8.50123 5.015804,-11.55381 2.146221,-2.13495 3.289451,-2.96906 5.383161,-3.92759 0.97053,-0.44432 1.54586,-0.89566 1.73856,-1.36389 1.59339,-3.8715 2.89844,-5.51161 5.48082,-6.88801 2.23169,-1.18948 4.12096,-1.48808 6.86237,-1.0846 l 2.21684,0.32626 0.66774,-0.89236 c 1.38879,-1.85594 4.79819,-4.90819 6.84891,-6.13146 4.26477,-2.54394 6.91821,-3.32884 11.99446,-3.54802 4.12087,-0.17792 6.0102,0.11244 9.64572,1.48243 3.96297,1.49339 6.17934,2.95278 9.16142,6.03245 3.7299,3.85196 5.11941,6.34331 6.45502,11.57367 l 0.80633,3.15767 1.71628,0.42937 c 3.30272,0.82626 6.96177,3.13705 8.72038,5.50717 3.79564,5.11546 4.36846,11.28616 1.58896,17.11686 -2.17949,4.57202 -7.41985,7.96466 -13.0788,8.4673 l -2.10448,0.18692 -1.99656,1.85834 c -7.82686,7.285 -18.77213,10.67012 -29.24065,9.04346 z m 3.03471,-9.75305 c -2.1274,-0.45651 -3.40883,-0.91376 -5.45376,-1.94603 -2.48852,-1.2562 -2.52607,-1.41108 -0.6509,-2.68449 l 1.59922,-1.08601 1.01484,0.51774 c 3.64572,1.85991 8.07779,2.22183 11.82498,0.96562 2.73251,-0.91605 3.99018,-1.66483 6.08028,-3.62001 1.87605,-1.75496 3.52628,-4.16598 4.2542,-6.21549 0.61553,-1.73306 0.43459,-2.13648 -1.05865,-2.3604 -0.66332,-0.0995 -1.20604,-0.26205 -1.20604,-0.36129 0,-0.0992 0.98537,-1.42517 2.18972,-2.94652 1.20435,-1.52135 2.46261,-3.15304 2.79614,-3.62598 0.33353,-0.47295 0.69936,-0.8599 0.81295,-0.8599 0.21565,0 3.46917,8.1098 3.46436,8.63536 -0.002,0.19051 -0.50488,0.28763 -1.37075,0.26458 l -1.36801,-0.0364 -0.44286,1.45521 c -1.04928,3.44783 -2.33251,5.55904 -5.00372,8.23229 -2.19528,2.19694 -2.88391,2.70873 -5.05097,3.75386 -1.38004,0.66557 -3.22353,1.40105 -4.09665,1.6344 -2.23912,0.59844 -6.23347,0.73429 -8.33438,0.28346 z m -14.71061,-12.21818 c -1.1636,-2.63113 -1.4999,-4.65827 -1.35506,-8.16812 0.2242,-5.43315 1.95644,-9.28562 6.02143,-13.39154 1.83855,-1.85706 2.67816,-2.48456 4.5122,-3.37228 3.33673,-1.61508 5.8641,-2.20417 9.3685,-2.18365 3.02919,0.0177 4.67607,0.25776 4.78914,0.69802 0.0364,0.14178 -0.63464,0.82333 -1.49123,1.51455 -1.54076,1.24332 -1.57819,1.25677 -3.49656,1.25677 -4.17712,0 -7.90229,1.62656 -11.20455,4.89234 -2.45411,2.42699 -3.48429,4.26452 -4.37249,7.79917 -0.84826,3.37568 -0.53658,6.72875 0.93983,10.11073 0.14643,0.33544 -0.12032,0.67567 -1.08391,1.3825 -0.70297,0.51566 -1.43352,0.94051 -1.62343,0.94412 -0.1899,0.004 -0.64165,-0.66357 -1.00387,-1.48261 z m 51.4877,-21.81184 c -0.94589,-0.41703 -1.81296,-0.79331 -1.92682,-0.83617 -0.11387,-0.0429 -0.389,-0.77476 -0.61141,-1.62645 -1.30068,-4.98084 -5.36761,-11.25724 -9.55514,-14.74621 -4.22887,-3.52342 -6.41735,-4.74766 -11.51545,-6.44178 -7.45534,-2.47744 -15.75302,-1.82082 -23.39381,1.8512 -2.37049,1.13922 -5.58148,3.50793 -8.38366,6.18453 -1.82525,1.74346 -2.43195,2.15313 -3.90909,2.63957 -0.96169,0.31669 -2.30528,0.92889 -2.98576,1.36044 -0.68047,0.43154 -1.29569,0.78463 -1.36713,0.78463 -0.0714,0 0.069,-0.38695 0.31201,-0.8599 1.8165,-3.53463 6.38138,-8.40998 10.37464,-11.08022 3.59421,-2.4034 5.58878,-3.38728 9.30538,-4.59015 4.54021,-1.46944 8.61988,-1.92455 13.66488,-1.52438 6.21401,0.49289 11.38409,2.28191 16.65728,5.76397 7.8764,5.20106 13.58593,13.70853 15.57315,23.20474 0.18985,0.90725 -0.008,0.89985 -2.23907,-0.0838 z"
       id="path18"
       sodipodi:nodetypes="cssscssscsccsssscsssssssssscsssssssssssssssscsscsssssscsssscsccssscssssssssscscssssssssssssssssscssssssssssscsssssss" /><path
       style="font-weight:800;font-size:3.93487px;font-family:'Hiragino Kaku Gothic Std';-inkscape-font-specification:'Hiragino Kaku Gothic Std Ultra-Bold';fill:#fecccc;stroke-width:0.0774582"
       d="m 136.47383,200.64374 c -0.0975,0.16642 -0.13174,0.26287 -0.14732,0.39737 -0.0343,0.3193 0.13569,0.65348 0.5033,0.98615 0.31218,0.2825 0.61744,0.42603 0.8842,0.41276 0.18078,-0.006 0.36002,-0.0988 0.49996,-0.2534 0.19009,-0.21006 0.22901,-0.43488 0.12384,-0.69985 -0.0547,-0.1449 -0.12127,-0.25303 -0.35175,-0.57305 -0.23073,-0.32559 -0.26562,-0.41018 -0.19433,-0.48897 0.0687,-0.0759 0.20688,-0.0409 0.3586,0.0963 0.15754,0.14258 0.18298,0.26107 0.0893,0.3939 l 0.61852,0.44832 c 0.1012,-0.20559 0.13103,-0.33246 0.11139,-0.5042 -0.0236,-0.24955 -0.17529,-0.49828 -0.45247,-0.74911 -0.48723,-0.44091 -0.97465,-0.49459 -1.29149,-0.1443 -0.0899,0.0992 -0.15329,0.22214 -0.17787,0.3432 -0.0241,0.13767 0.0118,0.29192 0.1043,0.47116 0.0673,0.11924 0.15464,0.25134 0.33675,0.49579 0.13141,0.17732 0.1588,0.22329 0.17852,0.28361 0.0197,0.0603 0.009,0.11935 -0.0308,0.16314 -0.0818,0.0904 -0.22594,0.0502 -0.401,-0.10815 -0.19548,-0.17689 -0.23396,-0.33376 -0.12583,-0.51189 z m 4.33524,2.63359 c 0.25488,-0.47517 0.14336,-0.97941 -0.30596,-1.38602 -0.56892,-0.51484 -1.27449,-0.47407 -1.80254,0.10946 -0.25874,0.28592 -0.39773,0.62715 -0.37901,0.94659 0.0126,0.30858 0.17265,0.61263 0.45275,0.86609 0.33843,0.30626 0.71219,0.42691 1.05344,0.34302 0.13203,-0.0345 0.2383,-0.0815 0.38393,-0.17795 l -0.46028,-0.57041 c -0.0724,0.0565 -0.11337,0.0726 -0.17394,0.0867 -0.13228,0.0289 -0.27955,-0.0195 -0.39334,-0.1224 -0.23341,-0.21122 -0.1974,-0.5501 0.0876,-0.8652 0.29044,-0.32095 0.59944,-0.38093 0.83578,-0.16708 0.10502,0.095 0.15504,0.20397 0.15267,0.3239 -10e-4,0.0781 -0.0208,0.13484 -0.0741,0.24606 z m 1.96766,0.79885 c -0.1198,0.16754 -0.22482,0.29537 -0.37268,0.45877 l -0.54125,0.5981 c -0.28276,0.0838 -0.54913,0.0497 -0.70959,-0.0955 -0.0846,-0.0765 -0.12242,-0.16379 -0.11571,-0.25332 0.007,-0.0783 0.0431,-0.14146 0.1513,-0.26109 l 0.54126,-0.5981 c 0.15841,-0.17506 0.27523,-0.29223 0.41939,-0.4165 l -0.60686,-0.54917 c -0.0963,0.13575 -0.21954,0.28955 -0.37268,0.45877 l -0.6627,0.73231 c -0.20857,0.23049 -0.28834,0.41834 -0.27725,0.64065 0.0132,0.20828 0.12055,0.40628 0.31603,0.58319 0.24799,0.22441 0.47765,0.30492 0.83392,0.29825 -0.0215,0.0177 -0.061,0.0615 -0.0742,0.0761 l -0.11351,0.12546 0.5806,0.5254 c 0.0881,-0.13253 0.1905,-0.25745 0.37268,-0.45877 l 0.81582,-0.90152 c 0.16107,-0.17799 0.27789,-0.29516 0.41941,-0.41651 z m 0.66225,3.83648 0.57475,0.52012 c 0.11184,-0.1588 0.21428,-0.28372 0.39117,-0.4792 l 1.36766,-1.5113 c 0.17689,-0.19549 0.30955,-0.33016 0.43787,-0.43693 l -0.59811,-0.54126 c -0.0987,0.14422 -0.20635,0.27497 -0.39116,0.4792 l -0.21913,0.24216 c -0.037,0.0409 -0.0608,0.0671 -0.0974,0.11356 -0.0526,-0.32889 -0.16639,-0.54329 -0.40272,-0.75714 -0.23924,-0.21651 -0.51476,-0.32255 -0.79821,-0.3084 -0.31389,0.0184 -0.62055,0.18139 -0.89513,0.48481 -0.53332,0.58937 -0.53451,1.23573 -0.004,1.71626 0.24507,0.22178 0.44138,0.30394 0.77945,0.32326 -0.0267,0.0235 -0.0453,0.044 -0.061,0.0615 z m 0.79605,-1.80038 c 0.26551,0.24025 0.26741,0.61347 0.0114,0.89647 -0.26139,0.28884 -0.64641,0.33313 -0.90608,0.0982 -0.10794,-0.0977 -0.17601,-0.23359 -0.18266,-0.36698 -0.0109,-0.16381 0.0638,-0.34027 0.21429,-0.50657 0.27723,-0.30635 0.60932,-0.35078 0.86314,-0.12107 z"
       id="text29"
       aria-label="scud" /></g></svg>
